<svg width="50" height="50" viewBox="0 0 50 50" fill="none" xmlns="http://www.w3.org/2000/svg">
<path id="Exclude" fill-rule="evenodd" clip-rule="evenodd" d="M50 25C50 38.8071 38.8071 50 25 50C11.1929 50 0 38.8071 0 25C0 11.1929 11.1929 0 25 0C38.8071 0 50 11.1929 50 25ZM7.8125 25C7.8125 34.4531 15.5469 42.1875 25 42.1875C27.7344 42.1875 30.4688 41.5625 32.8125 40.3125C33.5938 39.9219 33.9062 38.9844 33.5156 38.2031C33.125 37.4219 32.1875 37.1094 31.4062 37.5C29.4531 38.5156 27.2656 39.0625 25 39.0625C17.2656 39.0625 10.9375 32.7344 10.9375 25C10.9375 17.2656 17.2656 10.9375 25 10.9375C32.7344 10.9375 39.0625 17.2656 39.0625 25C39.0625 27.3438 38.4375 29.6875 37.3438 31.7187C35.9375 30.625 33.9062 28.4375 33.9062 25.0781V25V18.2031C33.9062 17.3438 33.2031 16.6406 32.3438 16.6406C31.4844 16.6406 30.7813 17.3438 30.7813 18.2031V18.2228C29.2259 16.895 27.2072 16.0938 25 16.0938C20.0781 16.0938 16.0938 20.0781 16.0938 25C16.0938 29.9219 20.0781 33.9062 25 33.9062C27.9115 33.9062 30.4949 32.5121 32.1196 30.3543C33.792 33.4008 36.4994 34.9601 37.026 35.2633C37.0687 35.288 37.0971 35.3043 37.1094 35.3125C37.8125 35.7031 38.6719 35.4688 39.1406 34.8438C41.0938 31.9531 42.1875 28.5156 42.1875 25C42.1875 15.5469 34.4531 7.8125 25 7.8125C15.5469 7.8125 7.8125 15.5469 7.8125 25ZM30.7813 25C30.7813 21.7969 28.2031 19.2188 25 19.2188C21.7969 19.2188 19.2188 21.7969 19.2188 25C19.2188 28.2031 21.7969 30.7812 25 30.7812C28.2031 30.7812 30.7813 28.2031 30.7813 25Z" fill="black"/>
</svg>
