<svg width="100" height="57" viewBox="0 0 100 57" fill="none" xmlns="http://www.w3.org/2000/svg">
<g id="Frame 1">
<path id="Vector" d="M56.632 56.5765C55.8835 56.5765 55.2326 56.4416 54.6791 56.1718C54.1257 55.8957 53.7012 55.5067 53.4056 55.0047C53.11 54.5028 52.9622 53.9192 52.9622 53.2542C52.9622 52.3318 53.1351 51.513 53.481 50.7977C53.8332 50.0824 54.3081 49.5302 54.9056 49.1412C55.503 48.7459 56.1666 48.5483 56.8961 48.5483C57.5754 48.5483 58.0911 48.724 58.4433 49.0753C58.7955 49.4204 58.9716 49.8785 58.9716 50.4495C58.9716 50.8322 58.9024 51.1397 58.764 51.3718C58.632 51.604 58.4401 51.72 58.1886 51.72C58.0125 51.72 57.8741 51.6793 57.7735 51.5977C57.6729 51.5161 57.6225 51.3969 57.6225 51.24C57.6225 51.1836 57.6351 51.08 57.6603 50.9295C57.698 50.7412 57.7169 50.5906 57.7169 50.4777C57.7169 49.9067 57.4118 49.6212 56.8018 49.6212C56.3867 49.6212 55.9905 49.7561 55.6131 50.0259C55.2357 50.2957 54.9307 50.6942 54.698 51.2212C54.4653 51.742 54.349 52.3632 54.349 53.0847C54.349 53.8377 54.5596 54.4212 54.981 54.8353C55.4024 55.2432 56.025 55.4471 56.849 55.4471C57.2578 55.4471 57.6697 55.3969 58.0848 55.2965C58.5062 55.1898 58.9716 55.0298 59.481 54.8165C59.5754 54.7789 59.654 54.76 59.7169 54.76C59.8175 54.76 59.893 54.7977 59.9433 54.873C59.9936 54.9483 60.0188 55.0455 60.0188 55.1647C60.0188 55.5475 59.8112 55.8298 59.3961 56.0118C58.9496 56.2063 58.4842 56.3506 57.9999 56.4447C57.5219 56.5326 57.0659 56.5765 56.632 56.5765ZM63.0994 56.5765C62.351 56.5765 61.7 56.4416 61.1465 56.1718C60.5931 55.8957 60.1686 55.5067 59.873 55.0047C59.5774 54.5028 59.4296 53.9192 59.4296 53.2542C59.4296 52.3318 59.6025 51.513 59.9484 50.7977C60.3006 50.0824 60.7755 49.5302 61.373 49.1412C61.9705 48.7459 62.634 48.5483 63.3635 48.5483C64.0428 48.5483 64.5585 48.724 64.9107 49.0753C65.2629 49.4204 65.439 49.8785 65.439 50.4495C65.439 50.8322 65.3698 51.1397 65.2314 51.3718C65.0994 51.604 64.9076 51.72 64.656 51.72C64.4799 51.72 64.3415 51.6793 64.2409 51.5977C64.1403 51.5161 64.0899 51.3969 64.0899 51.24C64.0899 51.1836 64.1025 51.08 64.1277 50.9295C64.1654 50.7412 64.1843 50.5906 64.1843 50.4777C64.1843 49.9067 63.8793 49.6212 63.2692 49.6212C62.8541 49.6212 62.4579 49.7561 62.0805 50.0259C61.7031 50.2957 61.3981 50.6942 61.1654 51.2212C60.9327 51.742 60.8164 52.3632 60.8164 53.0847C60.8164 53.8377 61.0271 54.4212 61.4484 54.8353C61.8698 55.2432 62.4925 55.4471 63.3164 55.4471C63.7252 55.4471 64.1371 55.3969 64.5522 55.2965C64.9736 55.1898 65.439 55.0298 65.9484 54.8165C66.0428 54.7789 66.1214 54.76 66.1843 54.76C66.2849 54.76 66.3604 54.7977 66.4107 54.873C66.461 54.9483 66.4862 55.0455 66.4862 55.1647C66.4862 55.5475 66.2786 55.8298 65.8635 56.0118C65.417 56.2063 64.9516 56.3506 64.4673 56.4447C63.9893 56.5326 63.5333 56.5765 63.0994 56.5765ZM68.8781 56.5765C68.3184 56.5765 67.8121 56.451 67.3593 56.2C66.9127 55.9491 66.5574 55.582 66.2932 55.0989C66.0291 54.6095 65.897 54.0259 65.897 53.3483C65.897 52.3946 66.0699 51.5538 66.4159 50.8259C66.7681 50.0981 67.2429 49.5365 67.8404 49.1412C68.4442 48.7459 69.1108 48.5483 69.8404 48.5483C70.4001 48.5483 70.9033 48.6738 71.3498 48.9247C71.8027 49.1757 72.1612 49.5459 72.4253 50.0353C72.6895 50.5185 72.8215 51.0989 72.8215 51.7765C72.8215 52.7302 72.6454 53.571 72.2932 54.2989C71.9473 55.0267 71.4725 55.5883 70.8687 55.9836C70.2712 56.3789 69.6077 56.5765 68.8781 56.5765ZM68.9725 55.4659C69.4631 55.4659 69.8939 55.3153 70.2649 55.0142C70.6423 54.713 70.9316 54.2957 71.1329 53.7624C71.3341 53.2228 71.4347 52.6142 71.4347 51.9365C71.4347 51.1898 71.2775 50.6251 70.9631 50.2424C70.6486 49.8534 70.2429 49.6589 69.7461 49.6589C69.2618 49.6589 68.8341 49.8095 68.4631 50.1106C68.092 50.4055 67.8027 50.8228 67.5951 51.3624C67.3876 51.8957 67.2838 52.5044 67.2838 53.1883C67.2838 53.935 67.441 54.5028 67.7555 54.8918C68.0699 55.2745 68.4756 55.4659 68.9725 55.4659Z" fill="black"/>
<path id="Vector_2" d="M56.9027 4.79516L56.3374 2.86923C56.1367 2.18528 55.6554 1.60711 55.017 1.28318C54.3784 0.959244 53.6249 0.910777 52.9496 1.15041C52.0836 1.45778 51.4373 2.20614 51.2627 3.10359L48.4894 17.3683L43.7871 12.0823L44.6013 9.92472C45.112 8.57168 45.0146 7.06318 44.3342 5.78598C43.6881 4.57282 42.4796 3.79219 41.1014 3.69771L38.9815 3.55243C37.7708 3.46912 36.5467 3.79231 35.5363 4.46178L32.7728 6.29274L28.2023 4.77859C27.8793 4.67172 27.5239 4.74927 27.2758 4.98056C27.0277 5.21198 26.9273 5.55984 27.0142 5.88672L29.0593 13.5815C29.4402 15.0144 29.9836 16.407 30.6744 17.7202L32.3592 20.9234C24.4421 24.4719 19.0061 31.8972 18.0799 40.5335L17.6697 44.3602C17.5562 45.4184 17.0229 46.3555 16.1681 46.9987C15.3116 47.6431 14.2261 47.9329 13.1126 47.8142C8.29697 47.3014 5.84394 44.9164 5.30514 44.0407C4.3642 42.5113 4.72941 39.8713 6.33349 36.6068C7.87348 33.4731 7.87484 32.4056 7.40345 31.7667C7.12787 31.3932 6.6703 31.2139 6.17915 31.2869C5.19068 31.4344 4.00924 32.6361 3.19214 33.6183C2.08267 34.952 1.18803 36.4548 0.737753 37.741C-0.148364 40.2729 -0.238001 42.7523 0.47835 44.9113C1.34397 47.5195 3.32733 49.6328 6.37361 51.1925C12.8851 54.5261 19.0417 54.9755 24.2056 54.9755H27.4202C28.1787 56.2027 29.5392 57 31.0592 57H44.5764C44.8784 57 45.1615 56.8536 45.3349 56.6077C45.5082 56.3618 45.5499 56.0475 45.4467 55.7652C44.8821 54.2224 43.5795 53.093 41.9622 52.7442C37.8472 51.8569 35.9162 51.0536 35.2138 50.588C36.8409 48.6003 37.7949 46.4012 38.0074 44.191L40.0659 42.4557L45.0112 54.2161C45.7225 55.9072 47.3738 57 49.218 57H52.5394C53.0509 57 53.4653 56.588 53.4653 56.0797C53.4653 53.8353 51.8644 51.9601 49.646 51.5898L47.1862 35.8745C47.6163 34.1931 48.6097 32.3388 50.1413 30.3597C51.0029 29.2461 51.5668 27.984 51.8403 26.6758C53.0012 26.381 55.0835 25.3398 55.8533 21.6671C55.8675 21.5988 55.8741 21.5294 55.8724 21.4598C55.7268 14.6519 56.6174 8.91599 57.007 6.766C57.1258 6.11372 57.0895 5.43223 56.9027 4.79516ZM48.6734 29.2378C48.1563 29.9061 47.6953 30.5648 47.2886 31.2129L47.3539 28.6808C47.367 28.1727 46.9633 27.7503 46.452 27.7373C45.9451 27.7265 45.5156 28.1256 45.5026 28.6336C45.5026 28.6336 45.3198 35.9233 45.3281 35.9763L47.9207 52.5403C47.983 52.9379 48.298 53.2492 48.6984 53.3089L49.2889 53.3969C50.3147 53.5499 51.1264 54.2407 51.4551 55.1593H49.2181C48.123 55.1593 47.1424 54.5105 46.7201 53.5063L37.2825 31.0629C37.0853 30.5939 36.5427 30.3725 36.0711 30.5686C35.5992 30.7646 35.3764 31.3036 35.5737 31.7726L39.3167 40.6737L37.9477 41.8278C37.5555 39.1933 36.1019 36.9268 33.9524 35.6044C29.6148 32.9359 23.0539 37.0923 22.7766 37.2706C22.3472 37.5467 22.2243 38.1165 22.5021 38.5431C22.7801 38.97 23.3536 39.0917 23.7826 38.8159C25.397 37.7777 30.1958 35.4582 32.9776 37.1694C34.6726 38.2121 35.8188 40.0224 36.1225 42.1364C36.5005 44.7662 35.5095 47.5384 33.3322 49.9427C33.1366 50.1586 33.0553 50.4538 33.1126 50.7388C33.3055 51.6979 34.3594 52.4416 36.6363 53.2258C38.2614 53.7855 40.2161 54.2509 41.5696 54.5428C42.0473 54.6457 42.4802 54.8597 42.8392 55.1593H31.0592C29.8945 55.1593 28.8947 54.3336 28.6816 53.1956L27.7085 47.9975C27.615 47.4978 27.1319 47.1685 26.6287 47.2611C26.126 47.3541 25.7942 47.8345 25.8878 48.3343L26.7865 53.135H24.2055C19.0151 53.135 13.365 52.7015 7.22158 49.5563C4.62212 48.2254 2.94508 46.4687 2.237 44.3348C1.64918 42.5634 1.73548 40.4924 2.48677 38.3457C3.11262 36.5573 4.5452 34.7406 5.55022 33.7832C5.38082 34.2537 5.10796 34.9064 4.66916 35.7992C3.33104 38.5222 2.08094 42.329 3.72502 45.0008C4.55965 46.3573 7.55457 49.0733 12.9153 49.6443C14.4994 49.8127 16.0519 49.3944 17.2859 48.4661C18.5527 47.5129 19.343 46.1239 19.5112 44.5552L19.9214 40.7285C20.7813 32.7096 25.8473 25.8203 33.2185 22.5573L33.9407 23.9301C34.1776 24.3805 34.7373 24.5549 35.1903 24.3193C35.6435 24.0838 35.8188 23.5278 35.5819 23.0774L32.3155 16.8675C31.6886 15.6755 31.1955 14.4117 30.8497 13.1112L29.2421 7.06306L32.6165 8.18088C32.8874 8.27057 33.185 8.23106 33.423 8.07351L36.5633 5.99285C37.235 5.54781 38.0474 5.33333 38.854 5.3883L40.9739 5.53358C41.7084 5.58389 42.3527 6.00009 42.6971 6.64673C43.1297 7.45878 43.1916 8.41794 42.867 9.27808L42.5019 10.2464C42.2173 10.9985 41.5467 11.5548 40.7509 11.6986L36.4476 12.4762C35.9445 12.5671 35.6108 13.0463 35.7023 13.5463C35.7835 13.9907 36.1733 14.3021 36.6122 14.3021C36.6672 14.3021 36.723 14.2972 36.779 14.287L41.0823 13.5095C41.4886 13.4361 41.8758 13.301 42.2352 13.1169L48.3479 19.9884C50.6667 22.5949 50.8035 26.4848 48.6734 29.2378ZM55.1849 6.43973C54.7873 8.63303 53.8814 14.4645 54.0191 21.3916C53.5865 23.3492 52.7197 24.2301 52.031 24.6268C51.9907 22.6705 51.322 20.7284 50.0343 19.1243L53.081 3.45292C53.1319 3.19144 53.3203 2.9734 53.5724 2.88383C53.772 2.81303 53.9861 2.82677 54.1748 2.92248C54.3634 3.01819 54.5001 3.18236 54.5594 3.38457L55.1246 5.31051C55.2318 5.67555 55.2525 6.06598 55.1849 6.43973Z" fill="black"/>
<path id="Vector_3" d="M56.3967 23.6414C57.8161 22.5272 61.5204 20.0302 65.5526 20.608C65.9166 20.2375 66.3042 19.9791 66.5062 19.8562C66.9407 19.5921 67.7719 19.185 68.4566 19.4268C69.0033 19.6197 69.3388 20.1701 69.3543 20.8992C69.3583 21.0873 69.3514 21.2725 69.3366 21.454C70.8532 23.0823 74.1403 25.6248 74.7789 25.7369C76.1953 25.7334 78.3703 25.1656 80.6726 24.5649C83.6916 23.7771 87.1135 22.8841 90.088 22.8841C96.1387 22.884 99.9999 30.1708 99.9999 35.1872C99.9999 37.5329 99.1745 39.182 98.5112 40.5069C98.0768 41.3747 97.7015 42.1241 97.7015 42.7949C97.7015 44.0623 98.9687 45.9813 99.7671 46.8926C99.9418 47.0914 100.026 47.3846 99.9927 47.6758L99.2266 54.3326C99.1977 54.5837 99.084 54.8077 98.9139 54.9484L96.6155 56.8503C96.4975 56.9479 96.3588 57 96.2171 57H94.6849C94.2882 57 93.9666 56.6009 93.9666 56.1085C93.9666 55.6161 94.2881 55.2169 94.6849 55.2169H95.0973C95.331 54.7073 95.7863 53.2497 95.5348 49.9325C95.389 49.8355 95.1842 49.7072 94.9952 49.5892C93.812 48.8494 91.7628 47.5671 90.0374 45.5851C90.0067 45.5824 89.9759 45.5781 89.945 45.5703C89.3662 45.4243 87.9642 45.5409 86.4799 45.6645C85.1575 45.7746 83.6943 45.8963 82.2848 45.8963C80.6828 45.8963 79.1502 45.7388 77.9727 45.2281L77.7736 45.8459C77.6489 48.1523 77.0578 51.3973 76.5783 53.7367C76.2993 55.0981 75.3116 56.049 74.1767 56.049H72.4671C72.1248 56.049 71.83 55.7491 71.7629 55.3323C71.6958 54.9157 71.875 54.498 72.191 54.3346C72.2019 54.3289 73.2813 53.7049 73.2813 51.3536C73.2813 49.3525 72.9255 45.6961 72.7133 43.6947C72.6454 43.0531 72.31 42.5224 71.8384 42.3098C71.1481 41.9986 69.7282 41.1774 67.975 39.1734C66.2653 37.2193 64.7281 34.6989 63.4014 31.6811C63.1095 31.7063 62.7924 31.7201 62.4438 31.7201C57.9427 31.7201 55.6604 30.647 55.6604 28.5304V25.3038C55.66 24.6251 55.9354 24.0037 56.3967 23.6414ZM62.4434 29.937C64.5201 29.937 65.1609 29.4762 65.9017 28.7731C66.2166 28.4741 66.6675 28.5486 66.9085 28.9398C67.1495 29.3308 67.0894 29.8903 66.7743 30.1895C66.2675 30.6705 65.7428 31.1037 64.9119 31.3855C68.1535 38.4563 71.6395 40.3233 72.3286 40.634C73.306 41.0746 73.9992 42.1584 74.1374 43.4622C74.4021 45.96 74.7177 49.3566 74.7177 51.3538C74.7177 52.624 74.4772 53.5712 74.164 54.2662H74.1767C74.6541 54.2662 75.0692 53.8677 75.1862 53.2973C75.5745 51.4032 76.2415 47.8839 76.3469 45.5971C76.3513 45.5009 76.3683 45.4063 76.397 45.3168L77.9293 40.5619C78.0766 40.1049 78.4944 39.8821 78.8629 40.0653C79.2312 40.2482 79.4103 40.767 79.263 41.2242L78.5068 43.5707C80.4445 44.3795 83.8495 44.0967 86.3838 43.8857C87.249 43.8138 88.0225 43.7495 88.6757 43.7278C88.397 43.2668 88.1424 42.7789 87.9213 42.2616C87.7355 41.8265 87.869 41.2869 88.2195 41.0563C88.5699 40.8256 89.0047 40.9914 89.1905 41.4265C90.669 44.8884 94.0275 46.988 95.6415 47.9971C96.5675 48.576 96.8795 48.771 96.9311 49.3545C97.1429 51.7458 97.0337 53.4026 96.8192 54.539L97.85 53.6862L98.5188 47.8747C97.8429 47.0323 96.2652 44.8458 96.2652 42.7953C96.2652 41.6155 96.7636 40.62 97.2911 39.5661C97.9167 38.3166 98.5636 37.0244 98.5636 35.1875C98.5636 33.0124 97.6748 30.3926 96.2439 28.3505C94.5798 25.9755 92.3936 24.6674 90.0882 24.6674C87.2631 24.6674 83.919 25.5401 80.9685 26.31C78.4801 26.9594 76.331 27.5202 74.7655 27.5202C74.541 27.5202 73.9445 27.5202 71.4756 25.5593C70.5416 24.8177 69.6073 23.9989 68.9054 23.3156C68.6871 23.8964 68.4675 24.2724 68.4491 24.3038C68.3083 24.5415 68.0906 24.6674 67.8699 24.6674C67.7222 24.6674 67.5731 24.611 67.4449 24.4941C67.1254 24.2023 67.0568 23.6444 67.2917 23.2477C67.2979 23.2373 67.8723 22.2376 67.9161 21.1345C67.4665 21.1892 66.4812 21.7783 66.1729 22.3624C65.9554 22.7743 65.5104 22.8893 65.1784 22.6196C65.0844 22.5431 65.0103 22.4435 64.9564 22.3313C61.4333 22.0482 58.1317 24.3895 57.1649 25.1486C57.1209 25.1831 57.0968 25.2384 57.0968 25.304V28.5305C57.0966 28.9893 58.4035 29.937 62.4434 29.937Z" fill="black"/>
<g id="Vector_4">
<path d="M76.3577 18.5525L71.1698 10.0491C70.7986 9.44073 70.2542 8.96299 69.6216 8.66278C69.7989 8.10236 69.8888 7.5198 69.8888 6.92583C69.8888 5.92987 69.6324 4.95873 69.146 4.09613C69.8818 3.4318 70.49 2.65116 70.5003 1.98925C70.5038 1.7667 70.427 1.03771 69.2924 1.00282C68.2221 0.970091 67.172 1.22675 66.2793 1.55846C65.5592 1.25943 64.7952 1.10775 64.0058 1.10775C63.2166 1.10775 62.453 1.25931 61.733 1.55818C60.8923 1.2458 59.9116 1.00001 58.9049 1.00001C58.8432 1.00001 58.781 1.001 58.7192 1.00289C57.5844 1.03775 57.5077 1.7667 57.5112 1.98929C57.5217 2.6512 58.1298 3.43184 58.8655 4.09617C58.3791 4.95881 58.1227 5.92987 58.1227 6.92586C58.1227 7.66959 58.2648 8.38107 58.5231 9.03547C57.6108 9.71505 57.0754 10.7671 57.0754 11.9114C57.0754 15.903 60.3591 19.1503 64.3952 19.1503H64.6106V20.447H62.8927C62.6726 20.447 62.4942 20.6234 62.4942 20.8411C62.4942 21.0589 62.6726 21.2353 62.8928 21.2353H65.0092C65.2293 21.2353 65.4077 21.0589 65.4077 20.8411V19.1503H68.2892V20.447H66.5713C66.3512 20.447 66.1728 20.6234 66.1728 20.8411C66.1728 21.0589 66.3512 21.2353 66.5713 21.2353H68.6877C68.9079 21.2353 69.0863 21.0589 69.0863 20.8411V19.1503H71.7236C71.7236 19.1503 71.7237 19.1503 71.7238 19.1503C71.7239 19.1503 71.724 19.1503 71.7242 19.1503H76.0166C76.1604 19.1503 76.293 19.0738 76.3636 18.95C76.4342 18.8261 76.432 18.6743 76.3577 18.5525ZM64.0058 1.89609C64.4075 1.89609 64.8015 1.94146 65.1846 2.03138C64.6567 2.29135 64.2455 2.5403 64.0058 2.69479C63.766 2.54022 63.3555 2.29123 62.8278 2.03114C63.2105 1.94138 63.6043 1.89609 64.0058 1.89609ZM58.3082 1.97707C58.3074 1.92538 58.3055 1.80428 58.744 1.79077C58.7975 1.78915 58.8514 1.78828 58.9049 1.78828C61.3503 1.78828 63.749 3.47365 63.7727 3.49061C63.9045 3.58463 64.0794 3.58847 64.2159 3.50436C64.2234 3.49974 64.2313 3.49594 64.2386 3.49081C65.6065 2.52169 67.4112 1.78828 69.1067 1.78828C69.1603 1.78828 69.214 1.78911 69.2676 1.79077C69.7061 1.80428 69.7042 1.92534 69.7034 1.97707C69.6972 2.37605 69.3151 2.78589 69.0652 3.06124C68.3011 3.90361 67.2986 4.5877 66.2526 5.04157C65.5213 5.35889 64.7287 5.58686 63.9238 5.57148C63.179 5.55726 62.4365 5.33558 61.7591 5.04157C60.9291 4.68149 60.1572 4.17936 59.4806 3.58396C59.07 3.22281 58.3179 2.58567 58.3082 1.97707ZM64.4044 11.9399C64.4008 11.9401 64.3973 11.9405 64.3937 11.9409C62.4913 12.0829 60.6348 11.1322 59.6494 9.5193C59.1731 8.73957 58.9198 7.83669 58.9198 6.92583C58.9198 6.11507 59.1156 5.32333 59.4893 4.6113C59.5555 4.66145 59.6218 4.71022 59.6877 4.75749C60.5214 5.35538 61.4073 5.80352 62.2642 6.07215C62.4951 7.4972 63.0849 8.35538 63.9394 8.49801C63.9614 8.50165 63.9836 8.50347 64.0058 8.50347C64.028 8.50347 64.0502 8.50161 64.0721 8.49801C64.9266 8.35538 65.5164 7.49724 65.7474 6.07215C66.6042 5.80348 67.4901 5.35538 68.3238 4.75749C68.3897 4.71018 68.456 4.66141 68.5222 4.6113C68.8959 5.32325 69.0916 6.11503 69.0916 6.92583C69.0916 7.42965 69.017 7.92388 68.8697 8.39948C68.8762 8.3768 68.1761 8.33143 68.1227 8.32921C67.7754 8.31483 67.4501 8.33846 67.1114 8.4277C66.3066 8.63974 65.5891 9.13013 65.0995 9.79599C64.6494 10.4082 64.4043 11.1544 64.4043 11.9114C64.4043 11.9209 64.4044 11.9304 64.4044 11.9399ZM63.1156 6.28197C63.6971 6.38335 64.2898 6.38449 64.8716 6.28569C64.8798 6.2843 64.8877 6.28335 64.8959 6.28197C64.8412 6.52602 64.7649 6.78366 64.659 7.01578C64.4824 7.40297 64.263 7.63481 64.0058 7.70611C63.7486 7.63485 63.5291 7.40297 63.3525 7.01578C63.2467 6.78362 63.1704 6.52598 63.1156 6.28197ZM57.8726 11.9113C57.8726 11.0739 58.2396 10.2997 58.8719 9.76857C59.2761 10.4811 59.8289 11.1032 60.4953 11.5938V14.921C60.4953 15.7938 60.7787 16.6615 61.2898 17.3725C61.3783 17.4956 61.4735 17.6144 61.5749 17.7274C59.3865 16.6852 57.8726 14.4699 57.8726 11.9113ZM64.7717 18.362C62.8532 18.362 61.2923 16.8184 61.2923 14.921V12.0892C61.2923 12.115 61.5392 12.2093 61.5701 12.2233C61.6676 12.2672 61.7663 12.3085 61.8661 12.347C62.0654 12.4239 62.269 12.49 62.4756 12.5448C62.8972 12.6566 63.3312 12.7213 63.7673 12.7388C63.9951 12.7479 64.2232 12.7443 64.4505 12.7279C64.5397 13.4979 64.7516 14.2526 65.0813 14.9558C65.3777 15.5881 65.7673 16.1769 66.2335 16.6993C66.6974 17.2191 67.2366 17.6728 67.83 18.042C68.0148 18.157 68.2049 18.2638 68.3994 18.362H64.7717ZM74.5228 18.3621C74.0009 18.3621 73.4791 18.3621 72.9572 18.3621C72.5478 18.362 72.1347 18.3744 71.724 18.3659C71.6056 18.3634 71.4873 18.3592 71.3694 18.3525C70.5317 18.3038 69.7096 18.1023 68.9497 17.7487C68.8151 17.686 68.6827 17.6187 68.5528 17.547C67.9813 17.2312 67.4586 16.8301 67.0066 16.3618C66.5541 15.8929 66.173 15.3569 65.8808 14.7766C65.5827 14.1845 65.3779 13.5468 65.2767 12.893C65.2265 12.5684 65.2013 12.2397 65.2013 11.9114C65.2013 10.3585 66.4788 9.09511 68.049 9.09511C68.0848 9.09511 68.1205 9.09602 68.1563 9.09732C68.1695 9.09784 68.1827 9.09859 68.1959 9.09926C68.2177 9.10037 68.2394 9.10175 68.2611 9.10337C68.278 9.10464 68.295 9.10594 68.3119 9.10752C68.3277 9.10898 68.3434 9.11076 68.3591 9.11246C69.2322 9.20854 70.0287 9.7049 70.4872 10.4564L75.3105 18.3621C75.048 18.3621 74.7854 18.3621 74.5228 18.3621Z" fill="black"/>
<path d="M64.7717 18.3621V18.362M64.7717 18.362C62.8532 18.362 61.2923 16.8184 61.2923 14.921V12.0892C61.2923 12.115 61.5392 12.2093 61.5701 12.2233C61.6676 12.2672 61.7663 12.3085 61.8661 12.347C62.0654 12.4239 62.269 12.49 62.4756 12.5448C62.8972 12.6566 63.3312 12.7213 63.7673 12.7388C63.9951 12.7479 64.2232 12.7443 64.4505 12.7279C64.5397 13.4979 64.7516 14.2526 65.0813 14.9558C65.3777 15.5881 65.7673 16.1769 66.2335 16.6993C66.6974 17.2191 67.2366 17.6728 67.83 18.042C68.0148 18.157 68.2049 18.2638 68.3994 18.362H64.7717ZM76.3577 18.5525L71.1698 10.0491C70.7986 9.44073 70.2542 8.96299 69.6216 8.66278C69.7989 8.10236 69.8888 7.5198 69.8888 6.92583C69.8888 5.92987 69.6324 4.95873 69.146 4.09613C69.8818 3.4318 70.49 2.65116 70.5003 1.98925C70.5038 1.7667 70.427 1.03771 69.2924 1.00282C68.2221 0.970091 67.172 1.22675 66.2793 1.55846C65.5592 1.25943 64.7952 1.10775 64.0058 1.10775C63.2166 1.10775 62.453 1.25931 61.733 1.55818C60.8923 1.2458 59.9116 1.00001 58.9049 1.00001C58.8432 1.00001 58.781 1.001 58.7192 1.00289C57.5844 1.03775 57.5077 1.7667 57.5112 1.98929C57.5217 2.6512 58.1298 3.43184 58.8655 4.09617C58.3791 4.95881 58.1227 5.92987 58.1227 6.92586C58.1227 7.66959 58.2648 8.38107 58.5231 9.03547C57.6108 9.71505 57.0754 10.7671 57.0754 11.9114C57.0754 15.903 60.3591 19.1503 64.3952 19.1503H64.6106V20.447H62.8927C62.6726 20.447 62.4942 20.6234 62.4942 20.8411C62.4942 21.0589 62.6726 21.2353 62.8928 21.2353H65.0092C65.2293 21.2353 65.4077 21.0589 65.4077 20.8411V19.1503H68.2892V20.447H66.5713C66.3512 20.447 66.1728 20.6234 66.1728 20.8411C66.1728 21.0589 66.3512 21.2353 66.5713 21.2353H68.6877C68.9079 21.2353 69.0863 21.0589 69.0863 20.8411V19.1503H71.7236C71.7236 19.1503 71.7237 19.1503 71.7238 19.1503C71.7239 19.1503 71.724 19.1503 71.7242 19.1503H76.0166C76.1604 19.1503 76.293 19.0738 76.3636 18.95C76.4342 18.8261 76.432 18.6743 76.3577 18.5525ZM64.0058 1.89609C64.4075 1.89609 64.8015 1.94146 65.1846 2.03138C64.6567 2.29135 64.2455 2.5403 64.0058 2.69479C63.766 2.54022 63.3555 2.29123 62.8278 2.03114C63.2105 1.94138 63.6043 1.89609 64.0058 1.89609ZM58.3082 1.97707C58.3074 1.92538 58.3055 1.80428 58.744 1.79077C58.7975 1.78915 58.8514 1.78828 58.9049 1.78828C61.3503 1.78828 63.749 3.47365 63.7727 3.49061C63.9045 3.58463 64.0794 3.58847 64.2159 3.50436C64.2234 3.49974 64.2313 3.49594 64.2386 3.49081C65.6065 2.52169 67.4112 1.78828 69.1067 1.78828C69.1603 1.78828 69.214 1.78911 69.2676 1.79077C69.7061 1.80428 69.7042 1.92534 69.7034 1.97707C69.6972 2.37605 69.3151 2.78589 69.0652 3.06124C68.3011 3.90361 67.2986 4.5877 66.2526 5.04157C65.5213 5.35889 64.7287 5.58686 63.9238 5.57148C63.179 5.55726 62.4365 5.33558 61.7591 5.04157C60.9291 4.68149 60.1572 4.17936 59.4806 3.58396C59.07 3.22281 58.3179 2.58567 58.3082 1.97707ZM64.4044 11.9399C64.4008 11.9401 64.3973 11.9405 64.3937 11.9409C62.4913 12.0829 60.6348 11.1322 59.6494 9.5193C59.1731 8.73957 58.9198 7.83669 58.9198 6.92583C58.9198 6.11507 59.1156 5.32333 59.4893 4.6113C59.5555 4.66145 59.6218 4.71022 59.6877 4.75749C60.5214 5.35538 61.4073 5.80352 62.2642 6.07215C62.4951 7.4972 63.0849 8.35538 63.9394 8.49801C63.9614 8.50165 63.9836 8.50347 64.0058 8.50347C64.028 8.50347 64.0502 8.50161 64.0721 8.49801C64.9266 8.35538 65.5164 7.49724 65.7474 6.07215C66.6042 5.80348 67.4901 5.35538 68.3238 4.75749C68.3897 4.71018 68.456 4.66141 68.5222 4.6113C68.8959 5.32325 69.0916 6.11503 69.0916 6.92583C69.0916 7.42965 69.017 7.92388 68.8697 8.39948C68.8762 8.3768 68.1761 8.33143 68.1227 8.32921C67.7754 8.31483 67.4501 8.33846 67.1114 8.4277C66.3066 8.63974 65.5891 9.13013 65.0995 9.79599C64.6494 10.4082 64.4043 11.1544 64.4043 11.9114C64.4043 11.9209 64.4044 11.9304 64.4044 11.9399ZM63.1156 6.28197C63.6971 6.38335 64.2898 6.38449 64.8716 6.28569C64.8798 6.2843 64.8877 6.28335 64.8959 6.28197C64.8412 6.52602 64.7649 6.78366 64.659 7.01578C64.4824 7.40297 64.263 7.63481 64.0058 7.70611C63.7486 7.63485 63.5291 7.40297 63.3525 7.01578C63.2467 6.78362 63.1704 6.52598 63.1156 6.28197ZM57.8726 11.9113C57.8726 11.0739 58.2396 10.2997 58.8719 9.76857C59.2761 10.4811 59.8289 11.1032 60.4953 11.5938V14.921C60.4953 15.7938 60.7787 16.6615 61.2898 17.3725C61.3783 17.4956 61.4735 17.6144 61.5749 17.7274C59.3865 16.6852 57.8726 14.4699 57.8726 11.9113ZM74.5228 18.3621C74.0009 18.3621 73.4791 18.3621 72.9572 18.3621C72.5478 18.362 72.1347 18.3744 71.724 18.3659C71.6056 18.3634 71.4873 18.3592 71.3694 18.3525C70.5317 18.3038 69.7096 18.1023 68.9497 17.7487C68.8151 17.686 68.6827 17.6187 68.5528 17.547C67.9813 17.2312 67.4586 16.8301 67.0066 16.3618C66.5541 15.8929 66.173 15.3569 65.8808 14.7766C65.5827 14.1845 65.3779 13.5468 65.2767 12.893C65.2265 12.5684 65.2013 12.2397 65.2013 11.9114C65.2013 10.3585 66.4788 9.09511 68.049 9.09511C68.0848 9.09511 68.1205 9.09602 68.1563 9.09732C68.1695 9.09784 68.1827 9.09859 68.1959 9.09926C68.2177 9.10037 68.2394 9.10175 68.2611 9.10337C68.278 9.10464 68.295 9.10594 68.3119 9.10752C68.3277 9.10898 68.3434 9.11076 68.3591 9.11246C69.2322 9.20854 70.0287 9.7049 70.4872 10.4564L75.3105 18.3621C75.048 18.3621 74.7854 18.3621 74.5228 18.3621Z" stroke="black" stroke-width="0.5"/>
</g>
</g>
</svg>
